<svg width="24" height="24" viewBox="0 0 24 24" fill="none" xmlns="http://www.w3.org/2000/svg">
<path d="M8.95887 7.81606C8.93991 8.04147 8.61191 8.09847 8.50642 7.89468L7.93834 6.79755C7.9016 6.72646 7.82675 6.67895 7.74209 6.6728L6.43485 6.57797C6.192 6.56037 6.13061 6.25589 6.35016 6.15794L7.53196 5.63061C7.60849 5.59645 7.65977 5.52703 7.66632 5.44842L7.76849 4.23482C7.78745 4.00941 8.11545 3.95241 8.22095 4.1562L8.78902 5.25334C8.82576 5.32443 8.90052 5.37195 8.98527 5.37808L10.2925 5.47291C10.5354 5.49051 10.5967 5.79499 10.3772 5.89294L9.1954 6.42027C9.11878 6.45445 9.06759 6.52385 9.06104 6.60247L8.95887 7.81606Z" fill="white"/>
<path d="M5.20605 8.6442C5.1744 8.75336 5.00755 8.75336 4.9759 8.6442L4.80543 8.05649C4.79442 8.01841 4.76233 7.98867 4.72134 7.97842L4.08827 7.82018C3.97067 7.79079 3.97067 7.63591 4.08827 7.60652L4.72134 7.44828C4.76233 7.43802 4.79442 7.40828 4.80543 7.37021L4.9759 6.78249C5.00755 6.67333 5.1744 6.67333 5.20605 6.78249L5.37652 7.37021C5.38754 7.40828 5.41957 7.43802 5.46061 7.44828L6.09368 7.60652C6.21129 7.63591 6.21129 7.79079 6.09368 7.82018L5.46061 7.97842C5.41957 7.98867 5.38754 8.01841 5.37652 8.05649L5.20605 8.6442Z" fill="white"/>
<path d="M7.38769 12.0199C7.35604 12.1291 7.18919 12.1291 7.15754 12.0199L6.98707 11.4322C6.97606 11.3941 6.94398 11.3644 6.90298 11.3541L6.26991 11.1959C6.15231 11.1665 6.15231 11.0116 6.26991 10.9822L6.90298 10.824C6.94398 10.8138 6.97606 10.784 6.98707 10.7459L7.15754 10.1582C7.18919 10.0491 7.35604 10.0491 7.38769 10.1582L7.55816 10.7459C7.56918 10.784 7.60121 10.8138 7.64226 10.824L8.27532 10.9822C8.39293 11.0116 8.39293 11.1665 8.27532 11.1959L7.64226 11.3541C7.60121 11.3644 7.56918 11.3941 7.55816 11.4322L7.38769 12.0199Z" fill="white"/>
<path d="M5.53133 10.6969C5.51023 10.7697 5.399 10.7697 5.37789 10.6969L5.26425 10.3051C5.25691 10.2797 5.23552 10.2599 5.20819 10.2531L4.78614 10.1476C4.70774 10.128 4.70774 10.0247 4.78614 10.0052L5.20819 9.89966C5.23552 9.89282 5.25691 9.873 5.26425 9.84761L5.37789 9.4558C5.399 9.38303 5.51023 9.38303 5.53133 9.4558L5.64498 9.84761C5.65232 9.873 5.67367 9.89282 5.70104 9.89966L6.12308 10.0052C6.20149 10.0247 6.20149 10.128 6.12308 10.1476L5.70104 10.2531C5.67367 10.2599 5.65232 10.2797 5.64498 10.3051L5.53133 10.6969Z" fill="white"/>
<path d="M10.6222 9.34666C10.601 9.41944 10.4898 9.41944 10.4687 9.34666L10.3551 8.95485C10.3477 8.92947 10.3263 8.90964 10.299 8.90281L9.87696 8.79731C9.79856 8.77772 9.79856 8.67447 9.87696 8.65487L10.299 8.54938C10.3263 8.54254 10.3477 8.52272 10.3551 8.49733L10.4687 8.10552C10.4898 8.03275 10.601 8.03275 10.6222 8.10552L10.7358 8.49733C10.7431 8.52272 10.7645 8.54254 10.7919 8.54938L11.2139 8.65487C11.2923 8.67447 11.2923 8.77772 11.2139 8.79731L10.7919 8.90281C10.7645 8.90964 10.7431 8.92947 10.7358 8.95485L10.6222 9.34666Z" fill="white"/>
<path d="M17.8182 17.503L17.0909 18.1782M7.65777 8.54228L19.4624 18.5877C19.7555 18.8371 19.7654 19.2629 19.4843 19.5239V19.5239C19.2043 19.7839 18.7496 19.7777 18.4805 19.508C14.4047 15.4231 7.22842 8.20747 7.65777 8.54228Z" stroke="white"/>
</svg>
